<svg width="145" height="127" viewBox="0 0 145 127" fill="none" xmlns="http://www.w3.org/2000/svg">
<path d="M72.6652 1.63417C71.798 3.42292 71.5753 4.11855 71.4464 5.30001C71.3761 5.99564 71.341 6.07293 71.1183 6.07293C70.6378 6.07293 70.5793 5.95147 70.7668 5.2448C70.9543 4.4498 70.9777 2.56167 70.8019 1.35813C70.7316 0.883339 70.673 0.48584 70.6613 0.48584C70.6144 0.452713 68.8097 0.750839 68.7511 0.795006C68.7277 0.828125 68.7628 1.22563 68.8332 1.6673C68.9855 2.57272 68.9152 4.69272 68.716 5.30001L68.5871 5.69751H65.5168C62.0949 5.69751 60.3722 5.8521 57.4777 6.41521C52.6496 7.35376 48.2668 9.20876 45.0207 11.6821C43.1808 13.0733 41.2003 15.3148 40.2863 16.9931C39.8996 17.7329 39.3371 19.2898 39.1613 20.1069C39.0793 20.4933 38.9855 20.8356 38.9386 20.8688C38.9035 20.9019 38.4582 21.5644 37.9425 22.3594C37.4386 23.1433 36.1496 25.1419 35.0714 26.7761C31.7199 31.8773 31.0871 33.0367 29.6808 36.5479C28.8722 38.5796 27.3488 44.1225 27.1027 45.9333C26.8566 47.6779 27.0793 48.76 28.0168 50.5708C28.6144 51.6971 29.2003 52.3375 30.7121 53.4858C31.4269 54.0269 31.5558 54.1815 31.5089 54.3913C31.2628 55.2856 30.923 65.1127 31.005 68.6792C31.0988 72.8971 31.5207 75.1496 32.5988 77.2365C33.5363 79.0363 34.7082 80.3834 36.9933 82.2383C37.6378 82.7683 38.2003 83.2321 38.2355 83.2763C38.2707 83.3204 38.716 83.6075 39.2316 83.9167C39.7472 84.2369 40.1925 84.5129 40.216 84.535C40.2394 84.5571 39.091 86.2354 37.673 88.2561C36.2433 90.2767 35.0714 92.0323 35.0714 92.1648C35.0714 92.4408 35.4816 92.75 35.8332 92.75C35.9738 92.75 36.5246 92.5954 37.0753 92.3967C38.4347 91.9219 39.7355 91.8888 40.7199 92.3304C41.5871 92.7058 42.2785 93.3242 42.8644 94.2296C43.1222 94.6271 43.4035 94.9804 43.4972 95.0136C43.5793 95.0467 44.0597 94.8258 44.5519 94.5388C46.4972 93.3573 47.3644 93.0813 49.0753 93.0813C50.8566 93.0813 52.5089 93.545 53.6691 94.3621L54.0441 94.6271L54.3605 94.3621L54.6886 94.1081L53.9855 90.5306C53.4933 88.0683 53.3175 86.9311 53.3996 86.8758C53.6574 86.7323 57.0793 85.8931 58.1574 85.7054C59.7863 85.4404 69.1144 85.4404 71.3058 85.7165C73.9543 86.0477 77.3175 86.8206 77.2121 87.0746C77.1769 87.1519 76.7199 88.8413 76.1808 90.8177C75.3371 93.9204 75.2316 94.4284 75.3839 94.5277C75.6535 94.6823 76.2746 94.5388 76.9074 94.1744C78.9816 92.9709 81.1964 93.2358 83.6691 94.9694C84.2902 95.4111 84.5011 95.4773 84.7003 95.3006C84.7707 95.2454 85.7433 94.8148 86.8683 94.34C88.6964 93.5671 89.0011 93.4677 89.6222 93.4677C90.3488 93.4677 91.1222 93.7438 92.0714 94.3511C92.4582 94.594 92.5167 94.605 92.9269 94.4725C93.2082 94.3842 93.3839 94.2517 93.4074 94.1192C93.4191 94.0088 92.7746 92.0433 91.966 89.7688L90.4894 85.6281L90.8761 85.3521C93.0675 83.7621 93.5597 83.3425 93.8292 82.8346L94.1222 82.2936L95.8332 82.2163C98.5167 82.0948 100.005 81.7636 101.95 80.8361C103.86 79.9417 105.548 78.7823 107.271 77.2144C108.525 76.0661 108.853 75.6023 108.735 75.1496C108.618 74.6969 108.185 74.5644 107.704 74.8404C107.165 75.1496 104.88 75.8121 103.427 76.0771C101.821 76.3642 100.099 76.3642 98.5519 76.0661C97.9074 75.9446 97.3332 75.8231 97.298 75.8011C97.2628 75.779 97.4035 75.249 97.6261 74.6196C98.7628 71.3513 99.3019 68.4363 99.548 64.2404C99.7003 61.6567 99.5714 58.2448 99.2316 55.5506L99.0675 54.1815L99.3839 53.9496C101.634 52.2933 102.489 51.2333 103.228 49.1686C103.474 48.484 103.532 48.0975 103.532 47.2583C103.532 45.9444 103.45 45.4806 102.443 41.6823C101.083 36.5148 99.6769 33.3238 96.9347 29.15C91.6378 21.0896 91.591 21.0123 91.5089 20.4271C91.3097 18.9917 90.2667 16.7061 89.1183 15.1713C86.8332 12.1348 82.7199 9.36334 78.0558 7.72918L76.673 7.25439V6.79063C76.673 6.22751 77.2941 4.99084 78.2902 3.56646L79.005 2.55063L78.1847 2.02063C77.716 1.7225 77.3292 1.54584 77.2824 1.60104C76.0167 3.25729 74.9503 5.13438 74.7628 6.06188C74.6691 6.55876 74.5871 6.72439 74.4699 6.68022C74.3761 6.64709 74.0949 6.59188 73.8371 6.54771L73.3566 6.48147L73.4386 5.6423C73.5324 4.49397 73.6496 4.16271 74.5168 2.3298C74.9386 1.4575 75.2667 0.728752 75.2433 0.717712C75.173 0.651459 73.6027 0 73.5207 0C73.4738 0 73.0871 0.739792 72.6652 1.63417ZM70.5793 6.94522C79.4972 8.19292 86.5167 12.1017 89.3527 17.3906C89.9035 18.3954 90.3371 19.5438 90.4425 20.2394C90.5128 20.6921 90.4777 20.7804 89.9152 21.5754L89.3175 22.4146L88.4386 21.8404C87.9582 21.5202 87.466 21.189 87.3488 21.1117C87.1496 20.9902 87.1027 21.0123 86.8683 21.3546C86.6222 21.7411 86.6222 21.7521 86.798 23.1544C86.9972 24.6892 87.2199 27.9686 87.2199 29.4923V30.4529L86.048 31.5019C84.6769 32.7386 82.4152 34.2402 82.4152 33.9311C82.4152 33.5777 82.9894 31.5681 83.5402 29.9561C83.8332 29.0838 84.0558 28.2888 84.0324 28.1894C83.9972 28.0017 83.7863 27.9906 81.2433 28.0348C78.1378 28.079 76.8253 27.9686 74.8332 27.4938C73.0168 27.0631 71.1769 26.3454 68.3293 24.9763C66.1496 23.9163 65.8332 23.8058 65.1652 23.7617C64.1691 23.7065 63.3253 24.0156 62.2941 24.8106C59.8566 26.7098 56.7746 28.079 53.9386 28.5538C52.4855 28.7856 50.5636 28.7083 48.3839 28.3219C46.1808 27.9354 46.1808 27.9354 46.8605 29.8015C47.5285 31.6565 47.9621 33.7875 47.6808 33.7875C47.4347 33.7875 45.3253 32.2196 44.3761 31.3363C43.4386 30.464 43.4269 30.4419 43.3566 29.8125C43.2746 28.8629 43.4621 24.7886 43.6847 23.0992C43.8722 21.6417 43.8722 21.6306 43.6261 21.2442C43.3918 20.9019 43.3449 20.8688 43.1457 21.0013C43.0285 21.0786 42.5363 21.4098 42.0558 21.73L41.1769 22.3042L40.6847 21.6196C40.4152 21.2331 40.1457 20.8908 40.0871 20.8577C39.9699 20.7804 40.3332 19.4333 40.7433 18.3844C42.2668 14.5861 46.6496 10.9533 52.2511 8.85542C54.7589 7.91689 58.1691 7.11084 60.7941 6.85689C61.4386 6.79063 62.1535 6.71334 62.3761 6.69126C62.5988 6.66917 64.1808 6.65813 65.8918 6.68022C68.2355 6.71334 69.3839 6.76855 70.5793 6.94522ZM39.7003 22.0613C39.7707 22.1054 40.0168 22.3925 40.2628 22.7017C40.9543 23.6181 40.9308 23.6071 41.8097 23.0219C42.2316 22.7348 42.6066 22.525 42.6418 22.5581C42.6769 22.5913 42.6418 23.2758 42.548 24.0929C42.3488 26.0473 42.3488 32.4515 42.548 34.5052C42.7355 36.2829 43.1457 38.7342 43.5675 40.6113L43.8722 41.9031L43.6847 43.7802C43.4035 46.6621 42.8644 49.5771 42.3957 50.7586C42.2433 51.134 41.8566 51.8406 41.5285 52.3154C41.0011 53.0883 40.8488 53.2319 40.0519 53.6515C38.7277 54.3692 37.8488 54.6673 36.8761 54.7336C34.7902 54.8881 32.8918 54.0711 30.3019 51.9179C29.716 51.4321 29.4464 51.1008 28.9894 50.2506C27.6652 47.8104 27.6886 47.0375 29.2121 41.2958C30.4074 36.824 31.8019 33.6219 34.216 29.9008C37.7199 24.4573 39.3605 21.984 39.466 21.984C39.5363 21.9729 39.6418 22.0171 39.7003 22.0613ZM93.0324 25.0094C94.1105 26.6436 95.4699 28.7083 96.0558 29.5917C98.7042 33.5777 100.193 37.0117 101.575 42.2896C102.864 47.17 102.864 47.9429 101.681 50.2175C101.224 51.0788 101.001 51.3548 100.193 52.0725C99.0441 53.0663 97.4503 54.1042 96.5597 54.4244C94.4386 55.1642 92.8214 54.9875 90.5597 53.7619C89.798 53.3533 89.5871 53.1656 89.1417 52.5473C88.2394 51.2554 87.9113 50.35 87.3957 47.6448C87.1496 46.3529 86.7511 43.0515 86.7511 42.3338C86.7511 42.0246 86.88 41.1744 87.0441 40.4346C87.9699 36.1063 88.1574 34.2071 88.1105 29.0948C88.0871 26.7319 88.005 24.6008 87.9347 24.0488C87.7121 22.525 87.7121 22.514 88.6613 23.1323C89.5871 23.7286 89.5402 23.7396 90.3488 22.6685C90.6417 22.2821 90.923 21.9729 90.9816 21.995C91.0285 22.0171 91.9542 23.3642 93.0324 25.0094ZM68.4113 26.0583C71.423 27.4606 72.8175 28.0017 74.6457 28.4213C76.6144 28.885 77.5285 28.9733 80.2707 28.9623C82.7082 28.9513 82.8722 28.9623 82.7667 29.15C82.7082 29.2494 82.4269 30.0996 82.1339 31.0381C81.1847 34.1298 80.8566 36.9013 81.1144 39.5844C81.5128 43.6588 82.4738 46.0106 84.8058 48.5833L85.3332 49.1686L85.0285 49.6765C84.1496 51.1229 82.3214 52.989 80.7511 54.0379C74.0363 58.4988 63.6769 59.6361 54.8761 56.8646C54.2668 56.6658 53.048 56.1911 52.1808 55.7936C48.6183 54.1925 45.9699 51.9952 44.5636 49.4446L44.0832 48.5944L44.5753 47.6779C46.673 43.7581 47.9972 40.2469 48.548 37.1552C48.7589 35.9627 48.7941 35.4438 48.7472 34.1188C48.6886 32.4625 48.5246 31.5902 48.0207 30.1106C47.8449 29.6248 47.7277 29.2163 47.7511 29.2052C47.7746 29.1831 48.173 29.2383 48.6418 29.3267C53.5519 30.199 57.8761 29.1279 62.4113 25.9148C63.8761 24.8769 64.5089 24.5898 65.1886 24.6892C65.4113 24.7223 66.8644 25.3296 68.4113 26.0583ZM43.7433 32.2196C43.7433 32.33 43.6613 32.5177 43.5675 32.6392C43.4152 32.8379 43.4035 32.8269 43.3918 32.4294C43.3918 32.1423 43.4386 32.0208 43.5675 32.0208C43.6613 32.0208 43.7433 32.1092 43.7433 32.2196ZM87.1027 32.2417C87.1027 32.4736 86.9269 32.5398 86.8097 32.3521C86.7277 32.2196 86.8332 32.0208 86.9972 32.0208C87.0558 32.0208 87.1027 32.1202 87.1027 32.2417ZM45.3253 33.4011C45.5832 33.5998 46.2511 34.0415 46.8253 34.3948L47.8449 35.0352L47.7746 35.5983C47.4464 38.2594 46.7316 40.7106 45.3839 43.7913C45.1378 44.3433 44.8566 44.9396 44.7511 45.1163C44.5519 45.4365 44.5519 45.4254 44.6222 44.7188C44.8566 42.2123 44.8332 41.6381 44.4582 39.9156C44.0832 38.2594 43.6613 35.7971 43.6144 34.9248C43.591 34.6819 43.6378 34.4058 43.6964 34.3175C43.7668 34.2402 43.9894 33.8869 44.2003 33.5336C44.6105 32.849 44.5871 32.849 45.3253 33.4011ZM86.5402 33.2906L87.0558 33.5556L86.9621 34.6377C86.8332 36.1504 86.5636 37.8729 86.1769 39.75C85.9894 40.6333 85.8019 41.5277 85.7667 41.7375C85.6144 42.5656 86.2355 47.3688 86.798 49.6875C87.2902 51.7192 88.3683 53.5411 89.4933 54.2477C90.4191 54.8219 91.7082 55.4071 92.4582 55.5948C93.9113 55.9481 96.1261 55.7163 97.5089 55.0538L98.1066 54.7667L98.1652 55.0758C98.5402 56.8867 98.6808 64.3177 98.3761 66.7469C97.7316 72.0138 96.3957 75.9225 93.2667 81.7967C92.7746 82.7242 92.6925 82.8015 91.4855 83.6958C88.0402 86.2465 86.13 87.0415 83.5285 87.0415C81.9464 87.0415 80.8917 86.8538 77.4582 86.0036C72.1613 84.6786 71.7277 84.6344 64.4855 84.6344C57.8878 84.6344 58.2043 84.6013 54.3488 85.6281C51.1847 86.4563 50.5285 86.5888 49.0168 86.644C47.4699 86.7102 46.5558 86.5667 45.091 86.0256C42.5128 85.0871 38.0949 82.1831 35.8566 79.9417C32.4582 76.5629 31.7433 73.5486 32.0246 63.9092C32.0832 61.7671 32.1652 59.4594 32.2003 58.7969C32.2355 58.1233 32.2824 57.0413 32.3175 56.3898C32.3527 55.7273 32.4113 55.0758 32.4464 54.9323L32.5168 54.6783L33.0558 54.9323C33.8761 55.3077 34.5675 55.5065 35.5753 55.639C37.4503 55.8819 39.2199 55.374 41.341 53.9938C41.9503 53.5963 42.9582 52.0615 43.3918 50.9131L43.7082 50.0298L44.341 50.9352C47.1535 55.0096 53.0949 58.024 60.3253 59.0398C62.505 59.3379 67.4738 59.3158 69.7472 58.9846C75.5832 58.1233 80.1417 56.1469 83.423 53.0663C84.8527 51.7192 85.4386 50.9794 86.1183 49.6986L86.505 49.0029L85.6378 48.0423C83.5285 45.7015 82.591 43.5925 82.1808 40.2469C82.0519 39.1648 82.0402 35.9848 82.1574 35.5873C82.2042 35.4438 82.7902 35.0021 83.6457 34.4611C84.4191 33.9752 85.216 33.4563 85.4035 33.3017C85.8371 32.9483 85.8957 32.9483 86.5402 33.2906ZM106.603 76.5298C106.04 77.0929 104.575 78.2081 103.532 78.8817C101.599 80.1184 99.7824 80.8361 97.8839 81.1011C96.4542 81.3109 94.673 81.3219 94.755 81.1231C94.7902 81.0569 95.2121 80.1404 95.7042 79.1136C96.2082 78.0756 96.6535 77.1261 96.7121 76.9825C96.8527 76.6844 96.7707 76.6844 98.13 76.9604C100.556 77.4463 102.712 77.3358 105.407 76.585C107.071 76.1213 107.013 76.1213 106.603 76.5298ZM42.4543 85.849C43.8957 86.6219 45.1613 87.1298 46.4152 87.4169C47.5168 87.6708 49.9074 87.6488 51.2785 87.3617C51.841 87.2513 52.298 87.1519 52.298 87.1629C52.298 87.174 52.5558 88.4879 52.8839 90.089C53.2003 91.7011 53.4464 93.0261 53.423 93.0592C53.3996 93.0813 53.1652 92.9929 52.9074 92.8715C51.6535 92.2752 49.3918 91.9661 47.88 92.1869C46.7902 92.3415 46.0402 92.6175 44.798 93.28L43.8019 93.8211L43.4269 93.3021C42.3136 91.7342 40.2277 90.8177 38.423 91.0938C38.0128 91.149 37.4503 91.2815 37.1808 91.3698C36.8996 91.4581 36.6535 91.5244 36.6418 91.5023C36.6066 91.4802 41.048 85.1313 41.1066 85.1313C41.1066 85.1313 41.716 85.4515 42.4543 85.849ZM90.8878 89.7136C91.5675 91.6238 92.1066 93.1917 92.0832 93.1917C92.0714 93.1917 91.755 93.0702 91.3917 92.9156C89.7863 92.2421 89.2707 92.3083 86.5167 93.4677C85.4386 93.9204 84.5246 94.2958 84.4777 94.2958C84.4425 94.2958 84.1027 94.1081 83.7277 93.8652C82.8488 93.3021 82.2863 93.0371 81.3605 92.7721C79.7667 92.3083 78.6535 92.3525 77.2707 92.9267C76.9191 93.0813 76.6261 93.1806 76.6144 93.1696C76.5675 93.1144 78.1378 87.3506 78.2199 87.2844C78.2667 87.2402 78.8878 87.3396 79.6261 87.4942C83.5871 88.3554 86.0597 88.1125 88.8019 86.6219C89.1886 86.4121 89.5402 86.2354 89.5871 86.2354C89.6222 86.2354 90.2199 87.8033 90.8878 89.7136Z" fill="black"/>
<path d="M53.0011 14.321C49.9425 14.6964 47.8449 16.2312 47.8449 18.0862C47.8449 19.3339 48.7355 20.427 50.3644 21.1558C51.4425 21.6527 52.5441 21.8625 54.0324 21.8625C58.298 21.8625 61.2277 19.4554 59.9855 16.9489C59.4699 15.8889 57.9464 14.8952 56.2707 14.5197C55.4738 14.3431 53.6808 14.2327 53.0011 14.321ZM56.1652 15.0939C60.6066 16.165 60.8761 19.632 56.6339 20.946C55.7316 21.222 55.4738 21.2552 53.9972 21.2552C52.5675 21.2552 52.2394 21.222 51.4777 20.9791C47.88 19.8639 47.3761 17.0704 50.505 15.5908C52.0871 14.8289 54.3019 14.6412 56.1652 15.0939Z" fill="black"/>
<path d="M53.4464 17.8212C53.2941 18.1635 53.3878 18.4174 53.7277 18.5389C54.3371 18.7487 54.8058 18.296 54.466 17.8212C54.2082 17.4568 53.6339 17.4568 53.4464 17.8212Z" fill="black"/>
<path d="M74.0832 14.4093C71.5871 14.851 69.8878 16.0435 69.5128 17.5893C69.2082 18.9254 70.1105 20.2614 71.9152 21.0895C73.1105 21.6416 74.1535 21.8625 75.7472 21.8625C78.5363 21.8625 80.8449 20.8135 81.6535 19.1793C82.6027 17.2802 80.9738 15.2706 77.9035 14.5197C76.8605 14.2658 75.1379 14.2216 74.0832 14.4093ZM77.8332 15.0829C78.6652 15.2816 79.7668 15.7895 80.3293 16.2312C80.8449 16.6397 81.3605 17.5672 81.3605 18.0972C81.3488 19.8308 78.7472 21.3104 75.7472 21.3104C71.3996 21.2993 68.7043 18.7377 70.7668 16.5735C71.5988 15.7012 72.8293 15.1491 74.4582 14.9172C75.3605 14.7958 76.9425 14.8731 77.8332 15.0829Z" fill="black"/>
<path d="M75.173 17.6887C74.9386 17.9095 75.0089 18.307 75.3253 18.5058C75.5949 18.6714 75.6417 18.6714 75.9113 18.5058C76.4269 18.1856 76.2394 17.5562 75.6183 17.5562C75.4542 17.5562 75.255 17.6114 75.173 17.6887Z" fill="black"/>
<path d="M58.9425 31.557C58.755 31.7447 58.8253 31.8441 60.0324 33.2464C60.7355 34.0635 61.3917 34.737 61.4738 34.7591C61.5675 34.7812 61.6964 34.715 61.7785 34.6266C61.9074 34.4831 61.7199 34.207 60.5949 32.9152C59.8683 32.065 59.2355 31.3693 59.2003 31.3583C59.1652 31.3583 59.048 31.4466 58.9425 31.557Z" fill="black"/>
<path d="M68.9386 32.9041C68.0714 33.6218 67.3566 34.2733 67.3566 34.3506C67.3566 34.4168 67.4386 34.5273 67.5441 34.5935C67.6964 34.6818 68.0363 34.461 69.3371 33.401C70.216 32.6833 70.9308 32.065 70.9308 32.0208C70.9308 31.9766 70.8371 31.8662 70.7316 31.7779C70.5324 31.6233 70.4035 31.7006 68.9386 32.9041Z" fill="black"/>
<path d="M23.952 107.602C23.9307 107.943 23.8987 108.285 23.856 108.626C23.8133 108.967 23.7493 109.309 23.664 109.65C23.6 109.885 23.5253 110.119 23.44 110.354C23.3547 110.589 23.2693 110.823 23.184 111.058C23.12 111.271 23.0667 111.495 23.024 111.73C22.9813 111.943 22.928 112.167 22.864 112.402C22.6293 113.106 22.288 113.746 21.84 114.322C21.5627 114.685 21.2427 115.015 20.88 115.314C20.5173 115.591 20.1333 115.847 19.728 116.082C19.3867 116.317 19.0347 116.541 18.672 116.754C18.3093 116.967 17.9253 117.149 17.52 117.298C17.0507 117.49 16.4533 117.65 15.728 117.778C15.024 117.885 14.4267 117.959 13.936 118.002C13.7867 118.023 13.616 118.034 13.424 118.034C13.232 118.013 13.0507 118.023 12.88 118.066C12.7733 118.109 12.6667 118.162 12.56 118.226C12.5387 118.247 12.4853 118.269 12.4 118.29C12.336 118.29 12.2933 118.311 12.272 118.354C12.2507 118.397 12.2293 118.471 12.208 118.578C12.1867 118.663 12.1653 118.727 12.144 118.77C12.08 119.047 12.0587 119.325 12.08 119.602C12.1013 119.858 12.1013 120.125 12.08 120.402C12.0587 120.509 12.048 120.626 12.048 120.754C12.048 120.861 12.0267 120.967 11.984 121.074C11.92 121.287 11.824 121.501 11.696 121.714C11.5893 121.927 11.5147 122.141 11.472 122.354C11.4293 122.525 11.3973 122.695 11.376 122.866C11.3547 123.037 11.3227 123.207 11.28 123.378C11.2587 123.421 11.248 123.485 11.248 123.57C11.248 123.634 11.2267 123.687 11.184 123.73C11.1627 123.794 11.12 123.847 11.056 123.89C10.992 123.954 10.9387 124.007 10.896 124.05C10.704 124.263 10.4587 124.455 10.16 124.626C9.88267 124.797 9.60533 124.903 9.328 124.946C8.85867 125.031 8.304 125.063 7.664 125.042C7.024 125.042 6.45867 125.042 5.968 125.042H3.824C3.65333 125.042 3.45067 125.031 3.216 125.01C3.00267 125.01 2.81067 124.967 2.64 124.882C2.53333 124.839 2.416 124.765 2.288 124.658C2.16 124.573 2.04267 124.498 1.936 124.434C1.872 124.391 1.79733 124.338 1.712 124.274C1.648 124.21 1.57333 124.167 1.488 124.146C1.38133 124.103 1.264 124.071 1.136 124.05C1.02933 124.029 0.922667 124.007 0.816 123.986C0.752 123.943 0.688 123.89 0.624 123.826C0.56 123.783 0.506667 123.751 0.464 123.73C0.357333 123.687 0.293333 123.634 0.272 123.57C0.250667 123.527 0.229333 123.474 0.208 123.41C0.186667 123.346 0.165333 123.293 0.144 123.25C0.08 123.037 0.048 122.813 0.048 122.578C0.0266667 122.343 0.016 122.119 0.016 121.906V104.85C0.016 104.551 0.016 104.263 0.016 103.986C-0.00533333 103.687 -0.00533333 103.399 0.016 103.122C0.016 103.015 0.0266667 102.898 0.048 102.77C0.048 102.642 0.0693333 102.535 0.112 102.45C0.133333 102.386 0.165333 102.322 0.208 102.258C0.272 102.194 0.314667 102.141 0.336 102.098C0.357333 102.055 0.378667 102.013 0.4 101.97C0.442667 101.927 0.474667 101.895 0.496 101.874C0.538667 101.831 0.602667 101.799 0.688 101.778C0.773333 101.735 0.848 101.703 0.912 101.682C1.06133 101.618 1.21067 101.565 1.36 101.522C1.50933 101.479 1.65867 101.437 1.808 101.394C1.97867 101.33 2.13867 101.245 2.288 101.138C2.62933 100.967 2.928 100.743 3.184 100.466C3.44 100.189 3.728 99.9647 4.048 99.794C4.304 99.6447 4.58133 99.5594 4.88 99.538C5.17867 99.5167 5.46667 99.506 5.744 99.506H12.72C13.0827 99.506 13.456 99.506 13.84 99.506C14.224 99.4847 14.5973 99.4847 14.96 99.506C15.1947 99.5274 15.632 99.6234 16.272 99.794C16.9333 99.9434 17.648 100.146 18.416 100.402C19.184 100.637 19.888 100.893 20.528 101.17C21.1893 101.447 21.6373 101.703 21.872 101.938C22.2347 102.301 22.5547 102.695 22.832 103.122C23.1733 103.655 23.4293 104.242 23.6 104.882C23.728 105.309 23.8133 105.746 23.856 106.194C23.92 106.642 23.952 107.111 23.952 107.602ZM3.504 123.57C3.824 123.591 4.28267 123.602 4.88 123.602C5.49867 123.602 6.10667 123.602 6.704 123.602C7.32267 123.602 7.792 123.602 8.112 123.602C8.51733 123.602 8.88 123.527 9.2 123.378C9.24267 123.357 9.296 123.335 9.36 123.314C9.44533 123.293 9.49867 123.271 9.52 123.25C9.712 123.101 9.85067 122.919 9.936 122.706C9.97867 122.578 10 122.461 10 122.354C10.0853 122.013 10.128 121.618 10.128 121.17V118.61C10.128 118.439 10.128 118.269 10.128 118.098C10.1493 117.927 10.1707 117.767 10.192 117.618C10.2133 117.575 10.224 117.522 10.224 117.458C10.224 117.373 10.2347 117.309 10.256 117.266C10.2773 117.245 10.2987 117.223 10.32 117.202C10.3413 117.181 10.3627 117.159 10.384 117.138C10.448 117.095 10.512 117.042 10.576 116.978C10.64 116.893 10.7147 116.829 10.8 116.786C10.928 116.743 11.0347 116.722 11.12 116.722C11.4187 116.658 11.7067 116.626 11.984 116.626C12.3467 116.605 12.6987 116.594 13.04 116.594C13.4027 116.573 13.7547 116.551 14.096 116.53C14.3307 116.466 14.7573 116.317 15.376 116.082C15.9947 115.847 16.6773 115.57 17.424 115.25C18.1707 114.909 18.8533 114.567 19.472 114.226C20.0907 113.885 20.5173 113.597 20.752 113.362C21.072 112.893 21.3173 112.37 21.488 111.794C21.68 111.197 21.808 110.663 21.872 110.194C21.9573 109.959 21.9253 109.522 21.776 108.882C21.648 108.242 21.456 107.538 21.2 106.77C20.944 106.002 20.656 105.298 20.336 104.658C20.0373 104.018 19.7707 103.581 19.536 103.346C19.3013 103.111 18.9067 102.877 18.352 102.642C17.7973 102.407 17.2 102.194 16.56 102.002C15.92 101.81 15.3227 101.65 14.768 101.522C14.2133 101.394 13.8187 101.309 13.584 101.266C13.1147 101.223 12.5493 101.202 11.888 101.202C11.248 101.202 10.6827 101.202 10.192 101.202H5.168C4.82667 101.202 4.47467 101.202 4.112 101.202C3.74933 101.202 3.38667 101.245 3.024 101.33C2.93867 101.33 2.832 101.351 2.704 101.394C2.576 101.458 2.45867 101.543 2.352 101.65L2.16 101.778C2.13867 101.821 2.11733 101.885 2.096 101.97C2.07467 102.034 2.04267 102.087 2 102.13C1.91467 102.343 1.86133 102.546 1.84 102.738C1.81867 102.93 1.808 103.143 1.808 103.378V118.994C1.808 119.463 1.808 119.933 1.808 120.402C1.808 120.85 1.81867 121.298 1.84 121.746C1.84 121.895 1.85067 122.045 1.872 122.194C1.91467 122.343 1.95733 122.503 2 122.674C2.02133 122.695 2.032 122.738 2.032 122.802C2.05333 122.845 2.07467 122.877 2.096 122.898C2.11733 122.919 2.14933 122.951 2.192 122.994C2.23467 123.015 2.26667 123.047 2.288 123.09C2.352 123.133 2.40533 123.186 2.448 123.25C2.512 123.293 2.576 123.335 2.64 123.378C2.74667 123.421 2.87467 123.463 3.024 123.506C3.19467 123.527 3.35467 123.549 3.504 123.57ZM11.856 107.186C11.9627 107.207 12.0693 107.218 12.176 107.218C12.304 107.218 12.4107 107.239 12.496 107.282C12.56 107.303 12.624 107.335 12.688 107.378C12.752 107.399 12.8053 107.431 12.848 107.474C12.8907 107.495 12.9333 107.517 12.976 107.538C13.04 107.559 13.0827 107.581 13.104 107.602L13.296 107.922C13.3173 107.965 13.3493 108.018 13.392 108.082C13.4347 108.146 13.4667 108.199 13.488 108.242C13.5307 108.391 13.552 108.551 13.552 108.722C13.5733 108.893 13.5733 109.063 13.552 109.234C13.5307 109.298 13.52 109.362 13.52 109.426C13.52 109.49 13.5093 109.543 13.488 109.586C13.4667 109.629 13.4347 109.682 13.392 109.746C13.3707 109.789 13.3493 109.831 13.328 109.874L13.136 110.162C13.072 110.226 12.976 110.279 12.848 110.322C12.6133 110.471 12.3467 110.578 12.048 110.642C11.7707 110.706 11.4933 110.727 11.216 110.706C11.1307 110.706 11.0453 110.695 10.96 110.674C10.8747 110.653 10.7893 110.631 10.704 110.61H10.544C10.5013 110.567 10.4587 110.525 10.416 110.482C10.3947 110.418 10.3627 110.375 10.32 110.354C10.2987 110.311 10.256 110.269 10.192 110.226C10.1493 110.162 10.1173 110.119 10.096 110.098C10.0747 110.055 10.0533 110.002 10.032 109.938C10.032 109.853 10.032 109.789 10.032 109.746C10.0107 109.554 9.98933 109.362 9.968 109.17C9.968 108.978 9.968 108.797 9.968 108.626C9.968 108.519 9.968 108.413 9.968 108.306C9.968 108.199 9.97867 108.103 10 108.018C10.0213 107.933 10.0533 107.858 10.096 107.794C10.16 107.73 10.2027 107.666 10.224 107.602C10.2453 107.559 10.2667 107.517 10.288 107.474C10.3093 107.431 10.3307 107.399 10.352 107.378C10.3947 107.335 10.448 107.314 10.512 107.314C10.5973 107.314 10.6507 107.303 10.672 107.282C10.864 107.218 11.056 107.186 11.248 107.186C11.44 107.165 11.6427 107.165 11.856 107.186Z" fill="black"/>
<path d="M43.671 115.218C43.6923 115.687 43.6603 116.295 43.575 117.042C43.511 117.789 43.383 118.429 43.191 118.962C42.9777 119.431 42.711 119.943 42.391 120.498C42.071 121.053 41.719 121.575 41.335 122.066C40.9937 122.514 40.6203 122.941 40.215 123.346C39.831 123.751 39.3937 124.103 38.903 124.402C38.4337 124.743 37.8257 125.01 37.079 125.202C36.3323 125.394 35.7137 125.543 35.223 125.65C34.9883 125.714 34.6363 125.757 34.167 125.778C33.719 125.799 33.2283 125.81 32.695 125.81C32.183 125.81 31.6923 125.789 31.223 125.746C30.775 125.703 30.4337 125.639 30.199 125.554C29.7297 125.447 29.2177 125.309 28.663 125.138C28.1083 124.989 27.5857 124.775 27.095 124.498C26.6257 124.157 26.135 123.73 25.623 123.218C25.1323 122.685 24.695 122.183 24.311 121.714C24.0337 121.287 23.7563 120.85 23.479 120.402C23.2017 119.954 22.967 119.495 22.775 119.026C22.6043 118.706 22.4763 118.29 22.391 117.778C22.2843 117.266 22.2097 116.765 22.167 116.274C22.1243 115.762 22.103 115.346 22.103 115.026C22.103 114.706 22.1137 114.311 22.135 113.842C22.1563 113.373 22.2097 112.903 22.295 112.434C22.359 111.965 22.455 111.57 22.583 111.25C22.6897 110.994 22.7963 110.738 22.903 110.482C23.031 110.205 23.1697 109.959 23.319 109.746C23.4257 109.575 23.5323 109.415 23.639 109.266C23.767 109.117 23.895 108.967 24.023 108.818C24.215 108.626 24.6417 108.413 25.303 108.178C25.9643 107.922 26.7323 107.677 27.607 107.442C28.4817 107.207 29.3563 106.994 30.231 106.802C31.1057 106.61 31.8737 106.482 32.535 106.418C33.1963 106.333 33.623 106.333 33.815 106.418C34.0497 106.482 34.4763 106.567 35.095 106.674C35.735 106.781 36.4177 106.909 37.143 107.058C37.8897 107.186 38.5723 107.346 39.191 107.538C39.831 107.73 40.2683 107.943 40.503 108.178C40.823 108.477 41.175 108.882 41.559 109.394C41.943 109.885 42.295 110.386 42.615 110.898C42.935 111.389 43.1697 111.794 43.319 112.114C43.4683 112.583 43.5643 113.095 43.607 113.65C43.6497 114.205 43.671 114.727 43.671 115.218ZM39.543 121.97C39.735 121.778 39.9377 121.437 40.151 120.946C40.3857 120.455 40.6097 119.901 40.823 119.282C41.0577 118.642 41.2603 118.013 41.431 117.394C41.623 116.775 41.7723 116.221 41.879 115.73C41.9857 115.239 42.0283 114.898 42.007 114.706C41.9857 114.471 41.9323 114.119 41.847 113.65C41.7617 113.159 41.6443 112.637 41.495 112.082C41.3457 111.527 41.1643 111.015 40.951 110.546C40.759 110.055 40.5457 109.693 40.311 109.458C40.119 109.266 39.767 109.053 39.255 108.818C38.7643 108.562 38.1883 108.317 37.527 108.082C36.8657 107.826 36.2043 107.602 35.543 107.41C34.8817 107.197 34.295 107.026 33.783 106.898C33.2923 106.749 32.951 106.674 32.759 106.674C32.4177 106.653 32.0657 106.663 31.703 106.706C31.3617 106.727 31.0097 106.759 30.647 106.802C30.1777 106.866 29.6337 106.973 29.015 107.122C28.3963 107.25 27.8203 107.463 27.287 107.762C26.967 107.933 26.6577 108.125 26.359 108.338C26.0817 108.53 25.8043 108.754 25.527 109.01C25.0577 109.479 24.6523 110.087 24.311 110.834C23.9697 111.581 23.7243 112.199 23.575 112.69C23.4897 113.159 23.4363 113.693 23.415 114.29C23.3937 114.866 23.383 115.399 23.383 115.89C23.4043 116.125 23.4683 116.509 23.575 117.042C23.703 117.554 23.863 118.119 24.055 118.738C24.247 119.335 24.4603 119.901 24.695 120.434C24.9297 120.946 25.1643 121.319 25.399 121.554C25.8897 122.023 26.4657 122.418 27.127 122.738C27.8097 123.037 28.3857 123.271 28.855 123.442C29.0897 123.591 29.5057 123.698 30.103 123.762C30.7217 123.847 31.3937 123.901 32.119 123.922C32.8443 123.943 33.5057 123.933 34.103 123.89C34.7217 123.847 35.1483 123.783 35.383 123.698C35.8737 123.613 36.3643 123.495 36.855 123.346C37.367 123.197 37.8577 123.005 38.327 122.77C38.7963 122.514 39.2017 122.247 39.543 121.97ZM33.943 113.234C34.0497 113.511 34.103 113.799 34.103 114.098C34.1243 114.397 34.135 114.695 34.135 114.994C34.1563 115.314 34.1563 115.645 34.135 115.986C34.135 116.306 34.103 116.626 34.039 116.946C33.9963 117.117 33.943 117.309 33.879 117.522C33.815 117.714 33.719 117.885 33.591 118.034C33.527 118.098 33.431 118.173 33.303 118.258C33.1963 118.322 33.111 118.375 33.047 118.418C33.0043 118.439 32.9403 118.45 32.855 118.45C32.791 118.429 32.727 118.418 32.663 118.418C32.6417 118.418 32.599 118.429 32.535 118.45C32.471 118.45 32.4177 118.45 32.375 118.45C32.3537 118.429 32.3217 118.407 32.279 118.386C32.2363 118.343 32.1937 118.311 32.151 118.29L31.831 118.098C31.767 118.034 31.703 117.949 31.639 117.842C31.5963 117.714 31.5537 117.607 31.511 117.522C31.4257 117.351 31.3723 117.17 31.351 116.978C31.3297 116.765 31.3083 116.573 31.287 116.402C31.2443 115.954 31.223 115.506 31.223 115.058C31.223 114.589 31.2657 114.141 31.351 113.714C31.3937 113.479 31.447 113.255 31.511 113.042C31.575 112.829 31.7137 112.626 31.927 112.434C32.0123 112.391 32.0977 112.338 32.183 112.274C32.2897 112.189 32.3857 112.135 32.471 112.114L32.727 112.146C32.791 112.146 32.855 112.146 32.919 112.146C33.0043 112.146 33.0683 112.157 33.111 112.178C33.1537 112.199 33.1857 112.231 33.207 112.274C33.2497 112.295 33.2817 112.317 33.303 112.338C33.367 112.381 33.431 112.434 33.495 112.498C33.559 112.541 33.6123 112.583 33.655 112.626C33.719 112.711 33.7723 112.818 33.815 112.946C33.879 113.053 33.9217 113.149 33.943 113.234ZM32.759 113.65C32.8017 113.65 32.823 113.661 32.823 113.682C32.823 113.661 32.791 113.629 32.727 113.586C32.663 113.522 32.631 113.49 32.631 113.49C32.567 113.49 32.567 113.522 32.631 113.586C32.6737 113.586 32.7163 113.607 32.759 113.65Z" fill="black"/>
<path d="M61.7062 125.074H58.8903C58.4849 125.074 58.0583 125.063 57.6103 125.042C57.1836 125.021 56.7676 124.946 56.3623 124.818C56.1489 124.754 55.9356 124.669 55.7223 124.562C55.5089 124.455 55.2956 124.349 55.0822 124.242C54.9969 124.199 54.9009 124.135 54.7943 124.05C54.6876 123.965 54.5809 123.911 54.4743 123.89C54.4103 123.869 54.3356 123.858 54.2503 123.858C54.1649 123.858 54.0902 123.858 54.0262 123.858C53.9836 123.858 53.9302 123.847 53.8662 123.826C53.8236 123.826 53.7809 123.837 53.7383 123.858C53.6743 123.879 53.5996 123.911 53.5143 123.954C53.4503 123.997 53.3969 124.039 53.3543 124.082C53.1196 124.21 52.8956 124.349 52.6823 124.498C52.4689 124.647 52.2342 124.765 51.9782 124.85C51.5942 124.978 51.1996 125.042 50.7943 125.042C50.3889 125.063 49.9942 125.074 49.6102 125.074C49.2902 125.074 48.8636 125.074 48.3302 125.074C47.8182 125.095 47.2956 125.085 46.7622 125.042C46.2502 124.999 45.8343 124.903 45.5143 124.754C45.2369 124.669 44.9702 124.551 44.7142 124.402C44.4582 124.253 44.2343 124.071 44.0423 123.858C43.7649 123.538 43.5943 123.165 43.5303 122.738C43.4663 122.29 43.4236 121.863 43.4022 121.458C43.4022 121.138 43.4022 120.722 43.4022 120.21C43.4022 119.698 43.4022 119.197 43.4022 118.706C43.4022 118.194 43.4022 117.778 43.4022 117.458V104.05C43.4022 103.751 43.4129 103.442 43.4342 103.122C43.4556 102.781 43.5302 102.471 43.6582 102.194C43.7222 102.023 43.8183 101.863 43.9463 101.714C44.0743 101.565 44.2022 101.426 44.3302 101.298C44.6076 101.042 44.9169 100.797 45.2583 100.562C45.5996 100.327 45.9516 100.167 46.3143 100.082C46.5489 100.039 46.7836 100.007 47.0182 99.986C47.2529 99.9647 47.4769 99.954 47.6903 99.954H50.1543C50.3676 99.954 50.5702 99.9647 50.7622 99.986C50.9756 100.007 51.1889 100.039 51.4022 100.082L51.7542 100.178C51.9249 100.263 52.0743 100.391 52.2023 100.562C52.3516 100.711 52.4796 100.871 52.5863 101.042C52.7782 101.362 52.9596 101.703 53.1302 102.066C53.3222 102.407 53.4609 102.77 53.5462 103.154C53.6316 103.623 53.6636 104.135 53.6423 104.69C53.6209 105.223 53.6209 105.735 53.6423 106.226C53.6423 106.375 53.6529 106.503 53.6743 106.61C53.7169 106.717 53.7596 106.845 53.8022 106.994C53.8022 107.101 53.8343 107.186 53.8983 107.25C53.9409 107.271 53.9729 107.282 53.9943 107.282C54.0369 107.261 54.0689 107.25 54.0903 107.25C54.1756 107.229 54.2609 107.218 54.3462 107.218C54.4529 107.218 54.5489 107.197 54.6343 107.154C54.9116 106.983 55.1889 106.802 55.4663 106.61C55.7649 106.418 56.0742 106.279 56.3942 106.194C56.7356 106.087 57.0876 106.034 57.4502 106.034C57.8129 106.034 58.1649 106.034 58.5063 106.034C58.9756 106.034 59.4449 106.034 59.9142 106.034C60.3836 106.013 60.8529 106.013 61.3223 106.034C61.6209 106.055 61.9303 106.087 62.2503 106.13C62.5703 106.173 62.8369 106.311 63.0503 106.546C63.0929 106.567 63.1356 106.61 63.1782 106.674C63.2209 106.738 63.2529 106.791 63.2743 106.834C63.3596 106.962 63.4342 107.09 63.4982 107.218C63.5836 107.346 63.6689 107.485 63.7542 107.634C63.7969 107.741 63.8502 107.858 63.9142 107.986C63.9996 108.114 64.0636 108.231 64.1062 108.338C64.1916 108.594 64.2343 108.818 64.2343 109.01C64.2343 109.074 64.2236 109.138 64.2022 109.202C64.1809 109.266 64.1596 109.33 64.1383 109.394C64.0529 109.629 63.9356 109.853 63.7863 110.066C63.6583 110.279 63.5196 110.493 63.3703 110.706C63.0716 111.175 62.7516 111.634 62.4103 112.082C62.0903 112.53 61.7809 112.978 61.4823 113.426C61.3329 113.639 61.1942 113.853 61.0662 114.066C60.9382 114.279 60.8423 114.514 60.7783 114.77C60.7569 114.813 60.7356 114.866 60.7142 114.93C60.6929 114.994 60.6716 115.058 60.6502 115.122C60.6502 115.229 60.6716 115.346 60.7142 115.474C60.7569 115.837 60.8742 116.189 61.0662 116.53C61.2582 116.85 61.4502 117.159 61.6423 117.458C61.9409 117.778 62.2396 118.215 62.5382 118.77C62.8582 119.325 63.1569 119.879 63.4342 120.434C63.7329 120.967 64.0103 121.394 64.2663 121.714C64.3729 121.906 64.4689 122.098 64.5543 122.29C64.6396 122.461 64.7143 122.653 64.7783 122.866C64.8636 123.015 64.9169 123.154 64.9382 123.282C64.9382 123.346 64.9276 123.41 64.9062 123.474C64.9062 123.538 64.9062 123.591 64.9062 123.634C64.8849 123.698 64.8743 123.762 64.8743 123.826C64.8956 123.911 64.8849 123.975 64.8422 124.018C64.8209 124.039 64.7889 124.071 64.7463 124.114C64.7036 124.178 64.6609 124.231 64.6182 124.274C64.5969 124.295 64.5649 124.327 64.5222 124.37C64.4796 124.434 64.4369 124.487 64.3942 124.53C64.2449 124.658 64.0636 124.754 63.8503 124.818C63.6369 124.882 63.4236 124.935 63.2103 124.978C62.9969 125.021 62.7622 125.042 62.5062 125.042C62.2502 125.063 61.9836 125.074 61.7062 125.074ZM44.3942 104.882V120.594C44.3942 120.893 44.3942 121.213 44.3942 121.554C44.4156 121.895 44.4903 122.215 44.6183 122.514C44.8316 122.983 45.1729 123.303 45.6423 123.474C45.7916 123.517 45.9409 123.549 46.0903 123.57C46.2609 123.57 46.4209 123.57 46.5703 123.57C46.8476 123.591 47.1143 123.602 47.3703 123.602C47.6476 123.602 47.9143 123.602 48.1702 123.602H49.2902C49.5249 123.581 49.7596 123.559 49.9943 123.538C50.2503 123.517 50.4849 123.453 50.6982 123.346C50.7409 123.325 50.7942 123.303 50.8582 123.282C50.9436 123.261 50.9969 123.239 51.0182 123.218C51.0609 123.175 51.1036 123.133 51.1463 123.09C51.1889 123.026 51.2209 122.983 51.2422 122.962C51.2849 122.919 51.3276 122.877 51.3703 122.834C51.4129 122.77 51.4449 122.727 51.4663 122.706C51.5089 122.642 51.5303 122.578 51.5303 122.514C51.5516 122.429 51.5729 122.354 51.5942 122.29C51.6796 121.991 51.7223 121.693 51.7223 121.394C51.7223 121.074 51.7223 120.775 51.7223 120.498C51.7223 120.178 51.7542 119.858 51.8182 119.538C51.8182 119.517 51.8182 119.474 51.8182 119.41C51.8182 119.346 51.8289 119.303 51.8503 119.282C51.8716 119.261 51.9142 119.25 51.9782 119.25C52.0422 119.25 52.0849 119.25 52.1063 119.25C52.1489 119.229 52.2129 119.207 52.2983 119.186C52.3836 119.165 52.4369 119.165 52.4583 119.186C52.5009 119.186 52.5436 119.229 52.5863 119.314C52.6503 119.378 52.7143 119.442 52.7783 119.506C52.8636 119.57 52.9383 119.655 53.0023 119.762C53.2156 120.103 53.4289 120.445 53.6423 120.786C53.8556 121.127 54.0689 121.469 54.2822 121.81C54.4529 122.045 54.6236 122.279 54.7943 122.514C54.9863 122.749 55.2103 122.951 55.4663 123.122C55.8289 123.335 56.2129 123.463 56.6183 123.506C57.0449 123.549 57.4609 123.581 57.8662 123.602C58.3569 123.602 58.9436 123.602 59.6263 123.602C60.3303 123.602 60.9169 123.591 61.3862 123.57C61.5142 123.549 61.6529 123.527 61.8022 123.506C61.9729 123.485 62.1116 123.442 62.2183 123.378C62.2609 123.357 62.3036 123.325 62.3462 123.282C62.4102 123.239 62.4529 123.207 62.4743 123.186C62.6023 123.101 62.6982 123.026 62.7622 122.962C62.7836 122.919 62.7943 122.855 62.7943 122.77C62.8796 122.599 62.9222 122.45 62.9222 122.322C62.9222 122.258 62.9116 122.194 62.8903 122.13C62.8689 122.045 62.8476 121.97 62.8263 121.906C62.7409 121.607 62.6236 121.33 62.4743 121.074C62.3249 120.818 62.1649 120.573 61.9943 120.338C61.7169 120.018 61.4396 119.623 61.1623 119.154C60.9063 118.685 60.6396 118.215 60.3623 117.746C60.0849 117.277 59.8076 116.882 59.5303 116.562C59.3169 116.221 59.1036 115.858 58.8903 115.474C58.6983 115.069 58.6236 114.653 58.6663 114.226C58.7089 113.906 58.8262 113.597 59.0182 113.298C59.2102 112.999 59.3916 112.722 59.5623 112.466L61.6102 109.522C61.7382 109.33 61.8556 109.138 61.9622 108.946C62.0689 108.733 62.1542 108.519 62.2183 108.306C62.2183 108.263 62.2289 108.21 62.2503 108.146C62.2716 108.082 62.2822 108.029 62.2822 107.986C62.2822 107.922 62.2609 107.858 62.2183 107.794C62.1969 107.73 62.1756 107.677 62.1543 107.634C62.1329 107.591 62.1116 107.538 62.0903 107.474C62.0903 107.41 62.0796 107.367 62.0583 107.346C62.0369 107.303 61.9836 107.271 61.8983 107.25C61.8129 107.229 61.7489 107.207 61.7062 107.186C61.4929 107.058 61.2476 106.994 60.9702 106.994C60.6929 106.973 60.4262 106.962 60.1702 106.962H57.0343C56.6289 106.962 56.2236 106.994 55.8182 107.058C55.4129 107.101 55.0503 107.25 54.7303 107.506C54.4743 107.719 54.2609 107.986 54.0903 108.306C53.9196 108.562 53.7489 108.818 53.5783 109.074C53.4289 109.33 53.2689 109.597 53.0983 109.874C53.0556 109.959 53.0023 110.045 52.9383 110.13C52.8956 110.215 52.8423 110.301 52.7783 110.386L52.4583 110.674C52.4156 110.759 52.3729 110.802 52.3302 110.802C52.3089 110.802 52.2876 110.791 52.2663 110.77C52.2449 110.749 52.2129 110.727 52.1702 110.706C52.0209 110.642 51.9036 110.578 51.8182 110.514C51.7969 110.471 51.7756 110.397 51.7542 110.29C51.7542 110.162 51.7542 110.066 51.7542 110.002C51.7329 109.767 51.7223 109.533 51.7223 109.298C51.7223 109.042 51.7223 108.797 51.7223 108.562C51.7223 108.327 51.7223 107.975 51.7223 107.506C51.7223 107.015 51.7223 106.503 51.7223 105.97C51.7223 105.415 51.7223 104.903 51.7223 104.434C51.7223 103.943 51.7223 103.581 51.7223 103.346C51.7009 102.962 51.6476 102.567 51.5623 102.162C51.4769 101.757 51.2636 101.447 50.9222 101.234C50.7089 101.085 50.4636 100.999 50.1862 100.978C49.9089 100.935 49.6529 100.903 49.4183 100.882C48.9489 100.882 48.4689 100.882 47.9782 100.882C47.5089 100.861 47.0289 100.871 46.5382 100.914C46.3036 100.935 46.0796 100.978 45.8662 101.042C45.6529 101.085 45.4503 101.17 45.2583 101.298C45.1303 101.341 45.0342 101.394 44.9702 101.458C44.8209 101.607 44.7142 101.778 44.6502 101.97C44.5862 102.141 44.5329 102.322 44.4902 102.514C44.4049 102.877 44.3623 103.261 44.3623 103.666C44.3836 104.05 44.3942 104.455 44.3942 104.882Z" fill="black"/>
<path d="M81.646 121.778C81.582 121.97 81.5073 122.173 81.422 122.386C81.3367 122.578 81.2407 122.759 81.134 122.93C80.8567 123.378 80.494 123.773 80.046 124.114C79.6193 124.455 79.1713 124.754 78.702 125.01C78.4673 125.245 78.0513 125.447 77.454 125.618C76.878 125.789 76.238 125.917 75.534 126.002C74.8513 126.109 74.2113 126.173 73.614 126.194C73.038 126.237 72.6327 126.247 72.398 126.226C72.078 126.183 71.598 126.109 70.958 126.002C70.3393 125.917 69.71 125.789 69.07 125.618C68.4513 125.469 67.982 125.298 67.662 125.106C67.1927 124.871 66.5953 124.583 65.87 124.242C65.166 123.922 64.5687 123.527 64.078 123.058C63.8433 122.823 63.598 122.418 63.342 121.842C63.086 121.245 62.8513 120.605 62.638 119.922C62.4247 119.218 62.254 118.578 62.126 118.002C61.9767 117.405 61.902 116.989 61.902 116.754C61.9233 116.327 61.9553 115.901 61.998 115.474C62.0407 115.047 62.1153 114.631 62.222 114.226C62.3073 113.863 62.414 113.501 62.542 113.138C62.6487 112.754 62.7767 112.391 62.926 112.05C63.1393 111.559 63.374 111.058 63.63 110.546C63.886 110.034 64.1953 109.565 64.558 109.138C64.8353 108.839 65.1233 108.562 65.422 108.306C65.7207 108.029 66.03 107.762 66.35 107.506C66.6913 107.229 67.0433 106.973 67.406 106.738C67.7687 106.482 68.1527 106.269 68.558 106.098C69.0487 105.863 69.5713 105.682 70.126 105.554C70.6807 105.426 71.1927 105.33 71.662 105.266C71.854 105.202 72.238 105.234 72.814 105.362C73.4113 105.469 74.094 105.639 74.862 105.874C75.63 106.109 76.3873 106.365 77.134 106.642C77.902 106.919 78.574 107.197 79.15 107.474C79.7473 107.751 80.142 107.986 80.334 108.178C80.6327 108.498 80.8887 108.903 81.102 109.394C81.3367 109.863 81.5287 110.343 81.678 110.834C81.8487 111.325 81.9767 111.73 82.062 112.05C82.1473 112.498 82.19 112.957 82.19 113.426C82.2113 113.874 82.2327 114.333 82.254 114.802C82.254 115.271 82.2647 115.751 82.286 116.242C82.3287 116.733 82.3287 117.223 82.286 117.714C82.2647 118.055 82.2007 118.397 82.094 118.738C82.0087 119.058 81.9447 119.399 81.902 119.762C81.8593 120.082 81.8273 120.413 81.806 120.754C81.7847 121.074 81.7313 121.415 81.646 121.778ZM71.758 106.706C71.5233 106.77 71.1393 106.887 70.606 107.058C70.0727 107.207 69.4967 107.399 68.878 107.634C68.2593 107.869 67.6833 108.125 67.15 108.402C66.6167 108.658 66.2327 108.903 65.998 109.138C65.806 109.33 65.5927 109.671 65.358 110.162C65.1447 110.631 64.9313 111.186 64.718 111.826C64.526 112.445 64.3447 113.074 64.174 113.714C64.0247 114.333 63.9073 114.887 63.822 115.378C63.758 115.847 63.7473 116.178 63.79 116.37C63.8327 116.605 63.9073 116.957 64.014 117.426C64.142 117.874 64.2913 118.354 64.462 118.866C64.654 119.378 64.8567 119.869 65.07 120.338C65.3047 120.786 65.5393 121.127 65.774 121.362C65.966 121.554 66.3073 121.767 66.798 122.002C67.31 122.237 67.8967 122.471 68.558 122.706C69.2193 122.919 69.8807 123.122 70.542 123.314C71.2033 123.506 71.7793 123.655 72.27 123.762C72.782 123.869 73.134 123.911 73.326 123.89C73.9447 123.869 74.574 123.805 75.214 123.698C75.4487 123.613 75.79 123.485 76.238 123.314C76.686 123.143 77.166 122.951 77.678 122.738C78.19 122.525 78.67 122.29 79.118 122.034C79.566 121.778 79.9073 121.533 80.142 121.298C80.462 120.978 80.718 120.615 80.91 120.21C80.9313 120.167 80.9527 120.125 80.974 120.082C80.9953 120.018 81.0167 119.965 81.038 119.922C81.0593 119.858 81.0593 119.794 81.038 119.73C81.038 119.666 81.0487 119.602 81.07 119.538C81.07 119.495 81.07 119.442 81.07 119.378C81.0913 119.293 81.0913 119.229 81.07 119.186C81.0487 119.143 81.0167 119.101 80.974 119.058C80.9313 118.994 80.8887 118.941 80.846 118.898C80.8247 118.855 80.7927 118.813 80.75 118.77C80.7073 118.706 80.6647 118.663 80.622 118.642C80.558 118.599 80.4407 118.557 80.27 118.514C80.0567 118.429 79.8327 118.375 79.598 118.354C79.3847 118.333 79.1607 118.311 78.926 118.29H76.878C76.6007 118.29 76.3127 118.29 76.014 118.29C75.7367 118.29 75.4487 118.311 75.15 118.354C74.894 118.397 74.638 118.461 74.382 118.546C74.1473 118.631 73.902 118.695 73.646 118.738C73.5607 118.759 73.4753 118.791 73.39 118.834C73.3047 118.855 73.2193 118.866 73.134 118.866C73.0487 118.866 72.9633 118.855 72.878 118.834C72.7927 118.813 72.7073 118.802 72.622 118.802C72.6007 118.781 72.5687 118.781 72.526 118.802C72.5047 118.802 72.4833 118.791 72.462 118.77C72.4193 118.727 72.366 118.685 72.302 118.642C72.2593 118.578 72.2167 118.525 72.174 118.482C72.1527 118.461 72.1207 118.429 72.078 118.386C72.0353 118.343 72.0033 118.311 71.982 118.29C71.9607 118.247 71.9607 118.183 71.982 118.098C72.0033 118.013 72.0247 117.959 72.046 117.938C72.046 117.895 72.046 117.842 72.046 117.778C72.046 117.714 72.0567 117.671 72.078 117.65C72.0993 117.607 72.142 117.575 72.206 117.554C72.2913 117.511 72.3447 117.479 72.366 117.458C72.6647 117.266 72.9953 117.17 73.358 117.17C73.7207 117.17 74.0727 117.17 74.414 117.17C74.6487 117.17 75.0007 117.17 75.47 117.17C75.9607 117.17 76.4833 117.181 77.038 117.202C77.614 117.202 78.1367 117.202 78.606 117.202C79.0967 117.181 79.4593 117.159 79.694 117.138C79.8647 117.138 80.046 117.127 80.238 117.106C80.4513 117.085 80.6433 117.042 80.814 116.978C81.2407 116.807 81.55 116.487 81.742 116.018C81.806 115.869 81.838 115.698 81.838 115.506C81.8593 115.314 81.87 115.143 81.87 114.994C81.87 114.333 81.7847 113.639 81.614 112.914C81.5073 112.487 81.3793 112.082 81.23 111.698C81.0807 111.293 80.8887 110.919 80.654 110.578C80.4193 110.343 80.0247 110.034 79.47 109.65C78.9367 109.266 78.35 108.882 77.71 108.498C77.0913 108.093 76.5047 107.741 75.95 107.442C75.4167 107.122 75.0327 106.919 74.798 106.834C74.3287 106.749 73.838 106.706 73.326 106.706C72.814 106.685 72.2913 106.685 71.758 106.706ZM72.014 112.178L72.302 111.826C72.3233 111.805 72.334 111.783 72.334 111.762C72.3553 111.741 72.3767 111.719 72.398 111.698C72.4407 111.677 72.5047 111.677 72.59 111.698C72.6753 111.698 72.7393 111.687 72.782 111.666C72.8247 111.666 72.878 111.666 72.942 111.666C73.006 111.645 73.0487 111.645 73.07 111.666C73.134 111.687 73.198 111.73 73.262 111.794C73.326 111.858 73.3793 111.911 73.422 111.954C73.5073 111.997 73.5607 112.039 73.582 112.082C73.6033 112.103 73.6033 112.157 73.582 112.242C73.5607 112.327 73.55 112.391 73.55 112.434C73.55 112.455 73.55 112.498 73.55 112.562C73.5713 112.626 73.5713 112.679 73.55 112.722C73.5287 112.743 73.4753 112.775 73.39 112.818C73.326 112.839 73.2727 112.861 73.23 112.882C73.1873 112.903 73.134 112.935 73.07 112.978C73.006 113.021 72.9527 113.042 72.91 113.042C72.8887 113.063 72.846 113.063 72.782 113.042C72.7393 113.021 72.6967 113.01 72.654 113.01C72.6113 112.989 72.5367 112.978 72.43 112.978C72.3447 112.957 72.2807 112.935 72.238 112.914C72.1953 112.871 72.1527 112.818 72.11 112.754C72.0887 112.669 72.0567 112.605 72.014 112.562C71.9927 112.519 71.9713 112.487 71.95 112.466C71.9287 112.445 71.918 112.423 71.918 112.402C71.918 112.381 71.95 112.306 72.014 112.178ZM79.694 103.058C79.2673 103.421 78.8087 103.805 78.318 104.21C77.8487 104.615 77.3687 104.925 76.878 105.138C76.558 105.266 76.2167 105.341 75.854 105.362C75.5127 105.383 75.1713 105.426 74.83 105.49C74.5953 105.533 74.3607 105.597 74.126 105.682C73.9127 105.746 73.6887 105.799 73.454 105.842C73.134 105.906 72.814 105.949 72.494 105.97C72.174 105.991 71.854 106.002 71.534 106.002C71.2353 106.002 70.926 106.002 70.606 106.002C70.286 106.002 69.9767 105.991 69.678 105.97C69.5287 105.949 69.358 105.927 69.166 105.906C68.974 105.863 68.814 105.799 68.686 105.714C68.4727 105.629 68.302 105.479 68.174 105.266L68.078 104.914C68.0567 104.871 68.0353 104.829 68.014 104.786C67.9927 104.722 67.982 104.679 67.982 104.658C67.9607 104.551 67.9713 104.434 68.014 104.306C68.0567 104.178 68.0887 104.071 68.11 103.986C68.1313 103.922 68.1847 103.826 68.27 103.698C68.3767 103.506 68.494 103.325 68.622 103.154C68.7713 102.962 68.9207 102.781 69.07 102.61C69.3473 102.269 69.6247 101.917 69.902 101.554C70.1793 101.191 70.4887 100.85 70.83 100.53C70.958 100.423 71.0967 100.306 71.246 100.178C71.3953 100.029 71.5553 99.922 71.726 99.858C71.8113 99.8154 71.8967 99.794 71.982 99.794C72.0673 99.7727 72.1527 99.7514 72.238 99.73C72.2807 99.7087 72.3127 99.6874 72.334 99.666C72.3767 99.6447 72.4087 99.6447 72.43 99.666C72.4513 99.6874 72.4513 99.7194 72.43 99.762C72.43 99.7834 72.43 99.8047 72.43 99.826C72.4513 99.89 72.462 99.9647 72.462 100.05C72.4833 100.135 72.4833 100.21 72.462 100.274C72.462 100.295 72.4407 100.327 72.398 100.37C72.3553 100.413 72.3233 100.445 72.302 100.466L71.918 100.946C71.7473 101.159 71.566 101.373 71.374 101.586C71.2033 101.799 71.0327 102.023 70.862 102.258C70.7767 102.365 70.6807 102.493 70.574 102.642C70.4673 102.77 70.3927 102.909 70.35 103.058C70.3287 103.122 70.3073 103.197 70.286 103.282C70.286 103.367 70.2753 103.453 70.254 103.538C70.254 103.559 70.2433 103.581 70.222 103.602C70.222 103.623 70.222 103.655 70.222 103.698C70.2647 103.783 70.2967 103.837 70.318 103.858C70.3607 103.922 70.4033 103.997 70.446 104.082C70.4887 104.167 70.5313 104.231 70.574 104.274C70.6167 104.295 70.6807 104.317 70.766 104.338C70.8513 104.359 70.9153 104.381 70.958 104.402C71.2567 104.509 71.566 104.562 71.886 104.562C72.206 104.562 72.5153 104.562 72.814 104.562C73.2407 104.541 73.6567 104.509 74.062 104.466C74.4673 104.423 74.862 104.327 75.246 104.178C75.5447 104.071 75.8113 103.933 76.046 103.762C76.302 103.57 76.5473 103.378 76.782 103.186C77.0807 102.951 77.3793 102.717 77.678 102.482C77.9767 102.226 78.2647 101.981 78.542 101.746C78.798 101.533 79.0433 101.319 79.278 101.106C79.5127 100.893 79.758 100.679 80.014 100.466C80.2273 100.274 80.462 100.125 80.718 100.018C80.7393 99.9967 80.7713 99.9754 80.814 99.954C80.8567 99.9114 80.8993 99.89 80.942 99.89C81.006 99.8687 81.0807 99.8687 81.166 99.89C81.2513 99.9114 81.326 99.922 81.39 99.922C81.4753 99.922 81.5393 99.9327 81.582 99.954C81.6247 99.9754 81.6567 100.007 81.678 100.05C81.6993 100.093 81.7207 100.135 81.742 100.178C81.7847 100.199 81.8273 100.242 81.87 100.306C81.9127 100.37 81.934 100.423 81.934 100.466C81.9553 100.509 81.9447 100.573 81.902 100.658C81.8807 100.722 81.87 100.807 81.87 100.914C81.87 100.999 81.8487 101.085 81.806 101.17C81.7847 101.191 81.7527 101.223 81.71 101.266C81.6887 101.287 81.6673 101.319 81.646 101.362C81.5607 101.447 81.4753 101.533 81.39 101.618C81.326 101.703 81.2513 101.789 81.166 101.874L79.694 103.058Z" fill="black"/>
<path d="M104.303 118.514C104.303 118.983 104.303 119.485 104.303 120.018C104.325 120.53 104.325 121.031 104.303 121.522C104.282 121.799 104.239 122.098 104.175 122.418C104.133 122.717 104.016 122.983 103.824 123.218C103.674 123.41 103.482 123.559 103.247 123.666C103.013 123.794 102.789 123.911 102.576 124.018C102.298 124.189 102.01 124.359 101.712 124.53C101.434 124.701 101.125 124.829 100.784 124.914C100.421 124.999 100.037 125.042 99.6315 125.042C99.2475 125.042 98.8635 125.042 98.4795 125.042C98.0742 125.042 97.6582 125.042 97.2315 125.042C96.8262 125.063 96.4208 125.042 96.0155 124.978C95.6742 124.914 95.3435 124.797 95.0235 124.626C94.7035 124.477 94.3728 124.413 94.0315 124.434C93.9462 124.434 93.8608 124.445 93.7755 124.466C93.7115 124.487 93.6475 124.509 93.5835 124.53C93.3062 124.594 93.0288 124.679 92.7515 124.786C92.4955 124.914 92.2288 125.01 91.9515 125.074C91.0128 125.33 90.0528 125.394 89.0715 125.266C88.7302 125.223 88.3888 125.159 88.0475 125.074C87.7062 124.989 87.3755 124.882 87.0555 124.754C86.8208 124.647 86.5755 124.53 86.3195 124.402C86.0848 124.274 85.8715 124.135 85.6795 123.986C85.4022 123.773 85.1355 123.549 84.8795 123.314C84.6448 123.079 84.4315 122.823 84.2395 122.546C84.0048 122.311 83.7915 121.906 83.5995 121.33C83.4288 120.754 83.2795 120.125 83.1515 119.442C83.0448 118.738 82.9595 118.098 82.8955 117.522C82.8315 116.946 82.7782 116.541 82.7355 116.306C82.6502 115.367 82.5862 114.439 82.5435 113.522C82.5435 113.287 82.6075 112.839 82.7355 112.178C82.8422 111.495 83.0022 110.759 83.2155 109.97C83.4288 109.181 83.6635 108.455 83.9195 107.794C84.1755 107.111 84.4208 106.653 84.6555 106.418C84.9968 106.098 85.3275 105.842 85.6475 105.65C85.8608 105.522 86.0635 105.405 86.2555 105.298C86.4688 105.191 86.6822 105.106 86.8955 105.042C87.1942 104.935 87.5035 104.85 87.8235 104.786C88.1435 104.701 88.4742 104.647 88.8155 104.626C89.2848 104.583 89.7328 104.605 90.1595 104.69C90.6075 104.754 91.0555 104.839 91.5035 104.946C91.6955 105.01 91.8768 105.074 92.0475 105.138C92.2182 105.181 92.4102 105.223 92.6235 105.266C92.6662 105.266 92.7195 105.277 92.7835 105.298C92.8688 105.319 92.9328 105.319 92.9755 105.298C93.0182 105.298 93.0502 105.277 93.0715 105.234C93.1142 105.191 93.1462 105.159 93.1675 105.138C93.2102 105.095 93.2635 105.053 93.3275 105.01C93.3915 104.967 93.4342 104.925 93.4555 104.882C93.4982 104.839 93.5195 104.786 93.5195 104.722C93.5195 104.658 93.5195 104.605 93.5195 104.562C93.5835 104.263 93.6155 103.986 93.6155 103.73C93.6368 103.282 93.6368 102.845 93.6155 102.418C93.6155 101.97 93.6155 101.522 93.6155 101.074C93.6368 100.839 93.6582 100.626 93.6795 100.434C93.7222 100.221 93.7862 100.018 93.8715 99.826C93.8928 99.7834 93.9142 99.73 93.9355 99.666C93.9568 99.602 93.9782 99.5487 93.9995 99.506C94.0422 99.4634 94.0848 99.4207 94.1275 99.378C94.1915 99.3354 94.2342 99.3034 94.2555 99.282C94.2982 99.2394 94.3408 99.1967 94.3835 99.154C94.4262 99.1114 94.4688 99.0794 94.5115 99.058C94.5755 99.0154 94.6395 98.994 94.7035 98.994C94.7888 98.9727 94.8635 98.9514 94.9275 98.93C95.2262 98.8447 95.5462 98.802 95.8875 98.802C96.2288 98.802 96.5595 98.802 96.8795 98.802H98.9275C99.2048 98.8234 99.4822 98.8554 99.7595 98.898C100.058 98.9194 100.335 99.0047 100.591 99.154C100.89 99.3034 101.146 99.5167 101.359 99.794C101.594 100.071 101.85 100.317 102.128 100.53C102.405 100.743 102.703 100.925 103.023 101.074C103.365 101.223 103.642 101.447 103.855 101.746C104.026 101.981 104.133 102.247 104.175 102.546C104.239 102.823 104.271 103.111 104.271 103.41C104.314 103.879 104.325 104.359 104.303 104.85C104.303 105.319 104.303 105.81 104.303 106.322V118.514ZM102.448 121.266C102.469 120.775 102.469 120.199 102.448 119.538C102.448 118.877 102.448 118.311 102.448 117.842V103.506C102.448 103.271 102.437 103.047 102.415 102.834C102.415 102.599 102.384 102.375 102.32 102.162C102.32 102.077 102.298 101.97 102.256 101.842C102 101.351 101.573 101.074 100.976 101.01C100.378 100.925 99.8342 100.882 99.3435 100.882H98.5115C98.1275 100.882 97.7328 100.882 97.3275 100.882C96.9435 100.861 96.5702 100.893 96.2075 100.978C96.0582 100.999 95.8982 101.053 95.7275 101.138C95.5568 101.202 95.4182 101.287 95.3115 101.394C95.2902 101.415 95.2688 101.458 95.2475 101.522C95.2262 101.565 95.2048 101.607 95.1835 101.65C95.1408 101.714 95.0982 101.778 95.0555 101.842C95.0128 101.906 94.9808 101.97 94.9595 102.034C94.9382 102.119 94.9168 102.205 94.8955 102.29C94.8955 102.375 94.8848 102.461 94.8635 102.546C94.8422 102.738 94.8208 102.93 94.7995 103.122C94.7995 103.314 94.7995 103.517 94.7995 103.73V105.586C94.7995 105.735 94.7888 105.885 94.7675 106.034C94.7675 106.162 94.7568 106.301 94.7355 106.45C94.7355 106.493 94.7355 106.546 94.7355 106.61C94.7355 106.674 94.7142 106.727 94.6715 106.77C94.6502 106.813 94.6182 106.855 94.5755 106.898C94.5328 106.941 94.4902 106.983 94.4475 107.026C94.4262 107.047 94.3835 107.09 94.3195 107.154C94.2768 107.218 94.2342 107.261 94.1915 107.282C94.1702 107.303 94.1275 107.314 94.0635 107.314C94.0208 107.293 93.9782 107.282 93.9355 107.282C93.6795 107.282 93.4235 107.25 93.1675 107.186C92.8902 107.079 92.5915 106.983 92.2715 106.898C91.9728 106.813 91.6742 106.759 91.3755 106.738C90.9062 106.695 90.4368 106.695 89.9675 106.738C89.4982 106.759 89.0395 106.834 88.5915 106.962C88.2715 107.111 87.8555 107.367 87.3435 107.73C86.8528 108.093 86.3622 108.487 85.8715 108.914C85.4022 109.341 85.0395 109.714 84.7835 110.034C84.5702 110.269 84.3888 110.621 84.2395 111.09C84.1115 111.559 84.0048 112.071 83.9195 112.626C83.8555 113.159 83.8128 113.671 83.7915 114.162C83.7702 114.631 83.7595 114.983 83.7595 115.218C83.7595 115.453 83.8022 115.879 83.8875 116.498C83.9728 117.095 84.0902 117.757 84.2395 118.482C84.4102 119.186 84.6022 119.847 84.8155 120.466C85.0288 121.063 85.2528 121.479 85.4875 121.714C85.7008 121.97 85.9248 122.194 86.1595 122.386C86.3942 122.578 86.6502 122.759 86.9275 122.93C87.3968 123.229 87.8875 123.442 88.3995 123.57C88.7622 123.677 89.1248 123.751 89.4875 123.794C89.8502 123.837 90.2128 123.858 90.5755 123.858C90.9382 123.858 91.3115 123.826 91.6955 123.762C92.0795 123.719 92.4422 123.645 92.7835 123.538C93.0822 123.431 93.3595 123.314 93.6155 123.186C93.8928 123.058 94.1702 122.973 94.4475 122.93C94.6182 122.887 94.7355 122.866 94.7995 122.866C94.8422 122.866 94.8955 122.877 94.9595 122.898C95.0235 122.919 95.0768 122.941 95.1195 122.962C95.3328 123.026 95.5248 123.101 95.6955 123.186C95.8875 123.271 96.0795 123.346 96.2715 123.41C96.6342 123.495 97.0075 123.549 97.3915 123.57C97.7755 123.591 98.1595 123.602 98.5435 123.602C98.8635 123.602 99.1835 123.602 99.5035 123.602C99.8235 123.602 100.133 123.591 100.432 123.57C100.602 123.57 100.784 123.559 100.976 123.538C101.189 123.517 101.37 123.463 101.52 123.378C101.584 123.335 101.648 123.293 101.712 123.25C101.776 123.186 101.829 123.133 101.871 123.09L102.095 122.898C102.138 122.855 102.16 122.813 102.16 122.77C102.181 122.706 102.202 122.653 102.224 122.61C102.309 122.375 102.362 122.151 102.383 121.938C102.405 121.703 102.426 121.479 102.448 121.266ZM94.8315 114.962C94.8315 115.346 94.8208 115.751 94.7995 116.178C94.7995 116.583 94.6928 116.967 94.4795 117.33C94.4582 117.373 94.4262 117.437 94.3835 117.522C94.3622 117.607 94.3302 117.671 94.2875 117.714C94.2662 117.735 94.2235 117.767 94.1595 117.81C94.0955 117.831 94.0422 117.853 93.9995 117.874C93.9568 117.895 93.9035 117.927 93.8395 117.97C93.7968 118.013 93.7435 118.045 93.6795 118.066C93.6368 118.087 93.5835 118.098 93.5195 118.098C93.4555 118.077 93.4022 118.077 93.3595 118.098C93.2955 118.098 93.2315 118.109 93.1675 118.13C93.1035 118.13 93.0502 118.13 93.0075 118.13C92.5595 118.066 92.1968 117.821 91.9195 117.394C91.8768 117.33 91.8342 117.213 91.7915 117.042C91.7062 116.765 91.6422 116.487 91.5995 116.21C91.5782 115.911 91.5675 115.623 91.5675 115.346C91.5675 114.983 91.5888 114.589 91.6315 114.162C91.6742 113.714 91.8128 113.341 92.0475 113.042C92.0902 112.999 92.1328 112.946 92.1755 112.882C92.2182 112.797 92.2608 112.733 92.3035 112.69L92.6555 112.594C92.8262 112.509 92.9435 112.466 93.0075 112.466C93.3275 112.402 93.6582 112.466 93.9995 112.658C94.0422 112.679 94.0955 112.701 94.1595 112.722C94.2235 112.743 94.2662 112.775 94.2875 112.818C94.3515 112.882 94.4155 112.978 94.4795 113.106C94.5648 113.213 94.6182 113.309 94.6395 113.394C94.7462 113.607 94.7995 113.853 94.7995 114.13C94.8208 114.407 94.8315 114.685 94.8315 114.962Z" fill="black"/>
<path d="M122.74 121.778C122.676 121.97 122.601 122.173 122.516 122.386C122.43 122.578 122.334 122.759 122.228 122.93C121.95 123.378 121.588 123.773 121.14 124.114C120.713 124.455 120.265 124.754 119.796 125.01C119.561 125.245 119.145 125.447 118.548 125.618C117.972 125.789 117.332 125.917 116.628 126.002C115.945 126.109 115.305 126.173 114.708 126.194C114.132 126.237 113.726 126.247 113.492 126.226C113.172 126.183 112.692 126.109 112.052 126.002C111.433 125.917 110.804 125.789 110.164 125.618C109.545 125.469 109.076 125.298 108.756 125.106C108.286 124.871 107.689 124.583 106.964 124.242C106.26 123.922 105.662 123.527 105.172 123.058C104.937 122.823 104.692 122.418 104.436 121.842C104.18 121.245 103.945 120.605 103.732 119.922C103.518 119.218 103.348 118.578 103.22 118.002C103.07 117.405 102.996 116.989 102.996 116.754C103.017 116.327 103.049 115.901 103.092 115.474C103.134 115.047 103.209 114.631 103.316 114.226C103.401 113.863 103.508 113.501 103.636 113.138C103.742 112.754 103.87 112.391 104.02 112.05C104.233 111.559 104.468 111.058 104.724 110.546C104.98 110.034 105.289 109.565 105.652 109.138C105.929 108.839 106.217 108.562 106.516 108.306C106.814 108.029 107.124 107.762 107.444 107.506C107.785 107.229 108.137 106.973 108.5 106.738C108.862 106.482 109.246 106.269 109.652 106.098C110.142 105.863 110.665 105.682 111.22 105.554C111.774 105.426 112.286 105.33 112.756 105.266C112.948 105.202 113.332 105.234 113.908 105.362C114.505 105.469 115.188 105.639 115.956 105.874C116.724 106.109 117.481 106.365 118.228 106.642C118.996 106.919 119.668 107.197 120.244 107.474C120.841 107.751 121.236 107.986 121.428 108.178C121.726 108.498 121.982 108.903 122.196 109.394C122.43 109.863 122.622 110.343 122.772 110.834C122.942 111.325 123.07 111.73 123.156 112.05C123.241 112.498 123.284 112.957 123.284 113.426C123.305 113.874 123.326 114.333 123.348 114.802C123.348 115.271 123.358 115.751 123.38 116.242C123.422 116.733 123.422 117.223 123.38 117.714C123.358 118.055 123.294 118.397 123.188 118.738C123.102 119.058 123.038 119.399 122.996 119.762C122.953 120.082 122.921 120.413 122.9 120.754C122.878 121.074 122.825 121.415 122.74 121.778ZM112.852 106.706C112.617 106.77 112.233 106.887 111.7 107.058C111.166 107.207 110.59 107.399 109.972 107.634C109.353 107.869 108.777 108.125 108.244 108.402C107.71 108.658 107.326 108.903 107.092 109.138C106.9 109.33 106.686 109.671 106.452 110.162C106.238 110.631 106.025 111.186 105.812 111.826C105.62 112.445 105.438 113.074 105.268 113.714C105.118 114.333 105.001 114.887 104.916 115.378C104.852 115.847 104.841 116.178 104.884 116.37C104.926 116.605 105.001 116.957 105.108 117.426C105.236 117.874 105.385 118.354 105.556 118.866C105.748 119.378 105.95 119.869 106.164 120.338C106.398 120.786 106.633 121.127 106.868 121.362C107.06 121.554 107.401 121.767 107.892 122.002C108.404 122.237 108.99 122.471 109.652 122.706C110.313 122.919 110.974 123.122 111.636 123.314C112.297 123.506 112.873 123.655 113.364 123.762C113.876 123.869 114.228 123.911 114.42 123.89C115.038 123.869 115.668 123.805 116.308 123.698C116.542 123.613 116.884 123.485 117.332 123.314C117.78 123.143 118.26 122.951 118.772 122.738C119.284 122.525 119.764 122.29 120.212 122.034C120.66 121.778 121.001 121.533 121.236 121.298C121.556 120.978 121.812 120.615 122.004 120.21C122.025 120.167 122.046 120.125 122.068 120.082C122.089 120.018 122.11 119.965 122.132 119.922C122.153 119.858 122.153 119.794 122.132 119.73C122.132 119.666 122.142 119.602 122.164 119.538C122.164 119.495 122.164 119.442 122.164 119.378C122.185 119.293 122.185 119.229 122.164 119.186C122.142 119.143 122.11 119.101 122.068 119.058C122.025 118.994 121.982 118.941 121.94 118.898C121.918 118.855 121.886 118.813 121.844 118.77C121.801 118.706 121.758 118.663 121.716 118.642C121.652 118.599 121.534 118.557 121.364 118.514C121.15 118.429 120.926 118.375 120.692 118.354C120.478 118.333 120.254 118.311 120.02 118.29H117.972C117.694 118.29 117.406 118.29 117.108 118.29C116.83 118.29 116.542 118.311 116.244 118.354C115.988 118.397 115.732 118.461 115.476 118.546C115.241 118.631 114.996 118.695 114.74 118.738C114.654 118.759 114.569 118.791 114.484 118.834C114.398 118.855 114.313 118.866 114.228 118.866C114.142 118.866 114.057 118.855 113.972 118.834C113.886 118.813 113.801 118.802 113.716 118.802C113.694 118.781 113.662 118.781 113.62 118.802C113.598 118.802 113.577 118.791 113.556 118.77C113.513 118.727 113.46 118.685 113.396 118.642C113.353 118.578 113.31 118.525 113.268 118.482C113.246 118.461 113.214 118.429 113.172 118.386C113.129 118.343 113.097 118.311 113.076 118.29C113.054 118.247 113.054 118.183 113.076 118.098C113.097 118.013 113.118 117.959 113.14 117.938C113.14 117.895 113.14 117.842 113.14 117.778C113.14 117.714 113.15 117.671 113.172 117.65C113.193 117.607 113.236 117.575 113.3 117.554C113.385 117.511 113.438 117.479 113.46 117.458C113.758 117.266 114.089 117.17 114.452 117.17C114.814 117.17 115.166 117.17 115.508 117.17C115.742 117.17 116.094 117.17 116.564 117.17C117.054 117.17 117.577 117.181 118.132 117.202C118.708 117.202 119.23 117.202 119.7 117.202C120.19 117.181 120.553 117.159 120.788 117.138C120.958 117.138 121.14 117.127 121.332 117.106C121.545 117.085 121.737 117.042 121.908 116.978C122.334 116.807 122.644 116.487 122.836 116.018C122.9 115.869 122.932 115.698 122.932 115.506C122.953 115.314 122.964 115.143 122.964 114.994C122.964 114.333 122.878 113.639 122.708 112.914C122.601 112.487 122.473 112.082 122.324 111.698C122.174 111.293 121.982 110.919 121.748 110.578C121.513 110.343 121.118 110.034 120.564 109.65C120.03 109.266 119.444 108.882 118.804 108.498C118.185 108.093 117.598 107.741 117.044 107.442C116.51 107.122 116.126 106.919 115.892 106.834C115.422 106.749 114.932 106.706 114.42 106.706C113.908 106.685 113.385 106.685 112.852 106.706ZM113.108 112.178L113.396 111.826C113.417 111.805 113.428 111.783 113.428 111.762C113.449 111.741 113.47 111.719 113.492 111.698C113.534 111.677 113.598 111.677 113.684 111.698C113.769 111.698 113.833 111.687 113.876 111.666C113.918 111.666 113.972 111.666 114.036 111.666C114.1 111.645 114.142 111.645 114.164 111.666C114.228 111.687 114.292 111.73 114.356 111.794C114.42 111.858 114.473 111.911 114.516 111.954C114.601 111.997 114.654 112.039 114.676 112.082C114.697 112.103 114.697 112.157 114.676 112.242C114.654 112.327 114.644 112.391 114.644 112.434C114.644 112.455 114.644 112.498 114.644 112.562C114.665 112.626 114.665 112.679 114.644 112.722C114.622 112.743 114.569 112.775 114.484 112.818C114.42 112.839 114.366 112.861 114.324 112.882C114.281 112.903 114.228 112.935 114.164 112.978C114.1 113.021 114.046 113.042 114.004 113.042C113.982 113.063 113.94 113.063 113.876 113.042C113.833 113.021 113.79 113.01 113.748 113.01C113.705 112.989 113.63 112.978 113.524 112.978C113.438 112.957 113.374 112.935 113.332 112.914C113.289 112.871 113.246 112.818 113.204 112.754C113.182 112.669 113.15 112.605 113.108 112.562C113.086 112.519 113.065 112.487 113.044 112.466C113.022 112.445 113.012 112.423 113.012 112.402C113.012 112.381 113.044 112.306 113.108 112.178Z" fill="black"/>
<path d="M144.519 122.066C144.605 122.301 144.637 122.567 144.615 122.866C144.615 123.165 144.583 123.431 144.519 123.666C144.498 123.73 144.477 123.805 144.455 123.89C144.434 123.975 144.402 124.039 144.359 124.082C144.338 124.103 144.306 124.125 144.263 124.146C144.242 124.189 144.221 124.231 144.199 124.274C144.157 124.317 144.103 124.37 144.039 124.434C143.975 124.498 143.922 124.551 143.879 124.594C143.794 124.637 143.698 124.658 143.591 124.658C143.399 124.743 143.229 124.797 143.079 124.818C142.738 124.839 142.397 124.85 142.055 124.85C141.735 124.85 141.394 124.85 141.031 124.85C140.69 124.85 140.349 124.85 140.007 124.85C139.666 124.871 139.325 124.871 138.983 124.85C138.578 124.829 138.173 124.786 137.767 124.722C137.383 124.658 137.01 124.541 136.647 124.37C136.455 124.263 136.274 124.125 136.103 123.954C136.082 123.954 136.039 123.922 135.975 123.858C135.933 123.815 135.911 123.794 135.911 123.794C135.911 123.751 135.933 123.73 135.975 123.73C136.018 123.73 136.05 123.719 136.071 123.698C136.114 123.677 136.167 123.645 136.231 123.602C136.317 123.559 136.381 123.527 136.423 123.506L136.871 123.538C137.042 123.559 137.202 123.581 137.351 123.602C137.522 123.602 137.682 123.602 137.831 123.602C138.322 123.623 138.866 123.623 139.463 123.602C140.061 123.602 140.594 123.591 141.063 123.57C141.191 123.57 141.341 123.559 141.511 123.538C141.682 123.517 141.821 123.485 141.927 123.442C141.97 123.421 142.013 123.389 142.055 123.346C142.119 123.303 142.173 123.271 142.215 123.25C142.258 123.207 142.301 123.175 142.343 123.154C142.407 123.111 142.45 123.079 142.471 123.058C142.514 123.015 142.535 122.951 142.535 122.866C142.535 122.781 142.546 122.717 142.567 122.674C142.61 122.589 142.631 122.503 142.631 122.418C142.631 122.311 142.589 122.173 142.503 122.002C142.418 121.746 142.301 121.511 142.151 121.298C142.023 121.063 141.874 120.839 141.703 120.626C141.405 120.306 141.095 119.901 140.775 119.41C140.477 118.919 140.167 118.439 139.847 117.97C139.549 117.479 139.25 117.074 138.951 116.754C138.738 116.413 138.535 116.05 138.343 115.666C138.151 115.282 138.119 114.877 138.247 114.45C138.269 114.365 138.301 114.29 138.343 114.226C138.386 114.162 138.418 114.098 138.439 114.034C138.546 113.799 138.674 113.575 138.823 113.362C138.973 113.149 139.122 112.935 139.271 112.722C139.613 112.231 139.943 111.73 140.263 111.218C140.605 110.706 140.946 110.215 141.287 109.746C141.415 109.575 141.533 109.394 141.639 109.202C141.767 109.01 141.874 108.807 141.959 108.594C141.981 108.551 142.002 108.509 142.023 108.466C142.045 108.402 142.066 108.338 142.087 108.274L142.055 108.018C142.055 107.954 142.055 107.879 142.055 107.794C142.055 107.709 142.045 107.655 142.023 107.634C141.981 107.549 141.885 107.463 141.735 107.378C141.714 107.335 141.671 107.293 141.607 107.25C141.565 107.207 141.522 107.175 141.479 107.154C141.458 107.133 141.415 107.122 141.351 107.122C141.309 107.122 141.266 107.111 141.223 107.09C140.946 107.026 140.669 106.994 140.391 106.994C139.986 106.951 139.559 106.941 139.111 106.962C138.685 106.962 138.258 106.962 137.831 106.962C137.426 106.962 137.01 106.994 136.583 107.058C136.178 107.101 135.794 107.25 135.431 107.506C135.197 107.677 134.983 107.901 134.791 108.178C134.599 108.434 134.407 108.679 134.215 108.914C134.151 108.999 134.077 109.074 133.991 109.138C133.906 109.202 133.81 109.266 133.703 109.33C133.682 109.351 133.65 109.383 133.607 109.426C133.565 109.447 133.522 109.469 133.479 109.49C133.458 109.49 133.415 109.479 133.351 109.458C133.287 109.437 133.234 109.426 133.191 109.426C133.149 109.405 133.085 109.394 132.999 109.394C132.935 109.394 132.882 109.383 132.839 109.362C132.797 109.319 132.754 109.277 132.711 109.234C132.669 109.17 132.626 109.127 132.583 109.106C132.434 108.978 132.295 108.839 132.167 108.69C132.061 108.541 131.943 108.391 131.815 108.242C131.666 108.071 131.517 107.911 131.367 107.762C131.218 107.591 131.047 107.463 130.855 107.378C130.663 107.271 130.45 107.186 130.215 107.122C130.002 107.058 129.778 107.015 129.543 106.994C129.074 106.951 128.562 106.941 128.007 106.962C127.474 106.962 126.962 106.962 126.471 106.962C126.322 106.962 126.151 106.973 125.959 106.994C125.789 106.994 125.618 106.983 125.447 106.962C125.362 106.962 125.277 106.951 125.191 106.93C125.106 106.909 125.021 106.887 124.935 106.866C124.85 106.866 124.786 106.855 124.743 106.834C124.701 106.791 124.658 106.727 124.615 106.642C124.594 106.557 124.562 106.493 124.519 106.45C124.498 106.407 124.477 106.375 124.455 106.354C124.434 106.333 124.423 106.311 124.423 106.29C124.423 106.269 124.466 106.215 124.551 106.13C124.594 106.087 124.637 106.023 124.679 105.938C124.722 105.853 124.775 105.789 124.839 105.746C124.882 105.703 124.935 105.682 124.999 105.682C125.063 105.682 125.117 105.671 125.159 105.65C125.394 105.565 125.618 105.511 125.831 105.49C126.066 105.469 126.29 105.447 126.503 105.426C126.93 105.426 127.357 105.426 127.783 105.426C128.21 105.405 128.637 105.405 129.063 105.426C129.362 105.447 129.671 105.479 129.991 105.522C130.333 105.543 130.642 105.607 130.919 105.714C131.218 105.842 131.495 106.002 131.751 106.194C132.007 106.386 132.253 106.567 132.487 106.738C132.594 106.823 132.711 106.93 132.839 107.058C132.989 107.165 133.138 107.239 133.287 107.282C133.351 107.303 133.426 107.325 133.511 107.346C133.597 107.346 133.682 107.357 133.767 107.378C133.81 107.378 133.842 107.389 133.863 107.41C133.906 107.41 133.938 107.399 133.959 107.378C134.002 107.378 134.045 107.367 134.087 107.346C134.13 107.325 134.162 107.303 134.183 107.282C134.461 107.154 134.674 106.994 134.823 106.802C135.015 106.61 135.218 106.418 135.431 106.226C135.645 106.013 135.879 105.842 136.135 105.714C136.498 105.543 136.893 105.458 137.319 105.458C137.767 105.437 138.194 105.426 138.599 105.426H140.455C140.647 105.447 140.839 105.469 141.031 105.49C141.223 105.49 141.415 105.511 141.607 105.554C141.885 105.639 142.141 105.767 142.375 105.938C142.631 106.087 142.866 106.258 143.079 106.45C143.207 106.557 143.335 106.674 143.463 106.802C143.613 106.93 143.73 107.069 143.815 107.218C143.858 107.261 143.879 107.314 143.879 107.378C143.901 107.442 143.922 107.495 143.943 107.538C144.05 107.901 144.071 108.263 144.007 108.626C143.943 108.989 143.837 109.351 143.687 109.714C143.581 109.991 143.442 110.258 143.271 110.514C143.101 110.77 142.93 111.015 142.759 111.25L141.319 113.362C141.149 113.618 140.978 113.885 140.807 114.162C140.637 114.418 140.519 114.706 140.455 115.026C140.455 115.069 140.445 115.122 140.423 115.186C140.402 115.25 140.391 115.314 140.391 115.378C140.391 115.442 140.402 115.517 140.423 115.602C140.445 115.666 140.466 115.73 140.487 115.794C140.594 116.093 140.743 116.391 140.935 116.69C141.127 116.967 141.319 117.234 141.511 117.49L143.463 120.274C143.655 120.551 143.858 120.839 144.071 121.138C144.285 121.415 144.434 121.725 144.519 122.066ZM127.047 117.138C126.663 117.607 126.269 118.162 125.863 118.802C125.479 119.421 125.095 119.975 124.711 120.466C124.498 120.743 124.274 120.999 124.039 121.234C124.018 121.234 123.986 121.266 123.943 121.33C123.901 121.373 123.869 121.394 123.847 121.394C123.826 121.394 123.805 121.362 123.783 121.298C123.783 121.234 123.783 121.191 123.783 121.17C123.741 121.085 123.719 121.01 123.719 120.946C123.719 120.861 123.751 120.765 123.815 120.658C123.901 120.551 123.965 120.445 124.007 120.338C124.391 119.847 124.797 119.229 125.223 118.482C125.671 117.735 126.109 117.127 126.535 116.658C126.642 116.509 126.749 116.37 126.855 116.242C126.962 116.093 127.09 115.965 127.239 115.858C127.261 115.837 127.303 115.794 127.367 115.73C127.431 115.645 127.474 115.602 127.495 115.602C127.517 115.623 127.527 115.655 127.527 115.698C127.57 115.741 127.602 115.794 127.623 115.858C127.666 115.901 127.666 115.954 127.623 116.018C127.538 116.231 127.442 116.434 127.335 116.626C127.25 116.797 127.154 116.967 127.047 117.138ZM133.671 121.266C133.693 121.309 133.725 121.362 133.767 121.426C133.81 121.49 133.831 121.543 133.831 121.586C133.853 121.629 133.853 121.682 133.831 121.746C133.831 121.789 133.831 121.831 133.831 121.874C133.831 121.938 133.831 122.013 133.831 122.098C133.831 122.162 133.821 122.226 133.799 122.29C133.757 122.439 133.693 122.589 133.607 122.738C133.522 122.887 133.437 123.026 133.351 123.154C133.138 123.453 132.903 123.73 132.647 123.986C132.391 124.242 132.061 124.455 131.655 124.626C131.485 124.647 131.282 124.701 131.047 124.786C130.642 124.85 130.226 124.871 129.799 124.85C129.373 124.85 128.946 124.85 128.519 124.85C128.135 124.85 127.741 124.85 127.335 124.85C126.951 124.85 126.578 124.829 126.215 124.786C126.066 124.743 125.917 124.711 125.767 124.69C125.618 124.669 125.458 124.637 125.287 124.594C125.266 124.573 125.213 124.551 125.127 124.53C125.063 124.509 125.01 124.487 124.967 124.466C124.946 124.445 124.925 124.413 124.903 124.37C124.882 124.327 124.85 124.295 124.807 124.274C124.786 124.253 124.743 124.21 124.679 124.146C124.615 124.082 124.583 124.039 124.583 124.018C124.583 123.997 124.605 123.965 124.647 123.922C124.711 123.879 124.754 123.847 124.775 123.826C124.797 123.805 124.829 123.773 124.871 123.73C124.914 123.709 124.946 123.687 124.967 123.666C125.01 123.645 125.095 123.634 125.223 123.634C125.309 123.634 125.383 123.623 125.447 123.602C125.533 123.602 125.618 123.602 125.703 123.602C126.194 123.602 126.813 123.602 127.559 123.602C128.306 123.623 128.914 123.591 129.383 123.506C129.81 123.442 130.194 123.303 130.535 123.09C130.877 122.877 131.186 122.599 131.463 122.258C131.634 122.045 131.794 121.831 131.943 121.618C132.114 121.405 132.306 121.234 132.519 121.106C132.562 121.063 132.626 121.021 132.711 120.978C132.797 120.914 132.861 120.871 132.903 120.85C132.967 120.85 133.063 120.882 133.191 120.946C133.234 120.946 133.287 120.957 133.351 120.978C133.437 120.978 133.501 120.999 133.543 121.042C133.565 121.063 133.586 121.095 133.607 121.138C133.629 121.181 133.65 121.223 133.671 121.266Z" fill="black"/>
</svg>
